<svg xmlns="http://www.w3.org/2000/svg" width="1em" height="1em" viewBox="0 0 48 48"><path fill="white" fill-rule="evenodd" d="M6 9a3 3 0 0 1 3-3h30a3 3 0 0 1 3 3v30a3 3 0 0 1-3 3H9a3 3 0 0 1-3-3zm5.434 1q-.392 0-.776.032a.713.713 0 0 0-.658.708v27.55c0 .392.32.71.717.71h2.15a.714.714 0 0 0 .717-.71v-5.186l2.937 1.247c.375.16.832.328 1.309.39c.485.063 1.036.022 1.548-.288a2.84 2.84 0 0 0 1.375-2.427v-2.131a.714.714 0 0 0-.717-.71l-2.206-.711c0-.722.59-.717 1.3-.712l.19.001h.716a.714.714 0 0 0 .717-.71v-1.421h.81c1.146 0 1.829-1.265 1.194-2.21l-2.004-2.98v-1.205c0-5.101-4.172-9.237-9.32-9.237m7.168 11.013a1.07 1.07 0 0 1-1.075 1.066a1.07 1.07 0 0 1-1.075-1.066a1.07 1.07 0 0 1 1.075-1.066a1.07 1.07 0 0 1 1.075 1.066M26.684 28c0 .893-.479 1.67-1.189 2.084l1.01 1.727A4.41 4.41 0 0 0 28.685 28a4.41 4.41 0 0 0-2.18-3.81l-1.01 1.726A2.41 2.41 0 0 1 26.686 28m4.21 0c0-2.067-.899-3.786-2.112-4.663l1.173-1.62c1.807 1.307 2.94 3.672 2.94 6.283c0 2.61-1.133 4.976-2.94 6.284l-1.173-1.62c1.213-.878 2.113-2.597 2.113-4.664m4.211 0c0 3.181-1.264 5.848-2.99 7.217l1.243 1.566c2.302-1.825 3.747-5.128 3.747-8.783s-1.445-6.958-3.747-8.783l-1.242 1.567c1.725 1.368 2.99 4.035 2.99 7.216" clip-rule="evenodd"/></svg>