<svg width="90" height="90" viewBox="0 0 90 90" fill="none" xmlns="http://www.w3.org/2000/svg">
<rect x="1" y="1" width="88" height="88" rx="19" fill="#6E3AE1" stroke="white" stroke-width="2" stroke-linejoin="round"/>
<path d="M35 46.9L39.5175 52.0629C40.7877 53.5145 43.0779 53.4075 44.2073 51.8438L55 36.9" stroke="#F2F4F8" stroke-width="2" stroke-linecap="round" stroke-linejoin="round"/>
<path d="M70.5 56.4023V33.5977C70.499 32.5979 70.2367 31.616 69.7394 30.7504C69.2421 29.8848 68.5273 29.166 67.6667 28.6661L47.8333 17.2638C46.9719 16.7634 45.9947 16.5 45 16.5C44.0053 16.5 43.0281 16.7634 42.1667 17.2638L22.3333 28.6661C21.4727 29.166 20.7579 29.8848 20.2606 30.7504C19.7633 31.616 19.501 32.5979 19.5 33.5977V56.4023C19.501 57.4021 19.7633 58.384 20.2606 59.2496C20.7579 60.1152 21.4727 60.834 22.3333 61.3338L42.1667 72.7362C43.0281 73.2366 44.0053 73.5 45 73.5C45.9947 73.5 46.9719 73.2366 47.8333 72.7362L67.6667 61.3338C68.5273 60.834 69.2421 60.1152 69.7394 59.2496C70.2367 58.384 70.499 57.4021 70.5 56.4023Z" stroke="#F2F4F8" stroke-width="2" stroke-linecap="round" stroke-linejoin="round"/>
</svg>
