<svg width="31" height="30" viewBox="0 0 31 30" fill="none" xmlns="http://www.w3.org/2000/svg">
<g clip-path="url(#clip0_417_536)">
<path d="M15.9863 0C7.70213 0 0.986328 6.7158 0.986328 15C0.986328 22.0344 5.82953 27.9372 12.3629 29.5584V19.584H9.26993V15H12.3629V13.0248C12.3629 7.9194 14.6735 5.553 19.6859 5.553C20.6363 5.553 22.2761 5.7396 22.9469 5.9256V10.0806C22.5929 10.0434 21.9779 10.0248 21.2141 10.0248C18.7547 10.0248 17.8043 10.9566 17.8043 13.3788V15H22.7039L21.8621 19.584H17.8043V29.8902C25.2317 28.9932 30.9869 22.6692 30.9869 15C30.9863 6.7158 24.2705 0 15.9863 0Z" fill="#4C9FC1"/>
</g>
<defs>
<clipPath id="clip0_417_536">
<rect width="30" height="30" fill="white" transform="translate(0.986328)"/>
</clipPath>
</defs>
</svg>
