<svg width="39" height="38" viewBox="0 0 39 38" fill="none" xmlns="http://www.w3.org/2000/svg">
<g clip-path="url(#clip0_417_537)" filter="url(#filter0_d_417_537)">
<path d="M19.9863 2.70117C23.9941 2.70117 24.4688 2.71875 26.0449 2.78906C27.5098 2.85352 28.3008 3.09961 28.8281 3.30469C29.5254 3.57422 30.0293 3.90234 30.5508 4.42383C31.0781 4.95117 31.4004 5.44922 31.6699 6.14648C31.875 6.67383 32.1211 7.4707 32.1855 8.92969C32.2559 10.5117 32.2734 10.9863 32.2734 14.9883C32.2734 18.9961 32.2559 19.4707 32.1855 21.0469C32.1211 22.5117 31.875 23.3027 31.6699 23.8301C31.4004 24.5273 31.0723 25.0313 30.5508 25.5527C30.0234 26.0801 29.5254 26.4023 28.8281 26.6719C28.3008 26.877 27.5039 27.123 26.0449 27.1875C24.4629 27.2578 23.9883 27.2754 19.9863 27.2754C15.9785 27.2754 15.5039 27.2578 13.9277 27.1875C12.4629 27.123 11.6719 26.877 11.1445 26.6719C10.4473 26.4023 9.94336 26.0742 9.42188 25.5527C8.89453 25.0254 8.57227 24.5273 8.30273 23.8301C8.09766 23.3027 7.85156 22.5059 7.78711 21.0469C7.7168 19.4648 7.69922 18.9902 7.69922 14.9883C7.69922 10.9805 7.7168 10.5059 7.78711 8.92969C7.85156 7.46484 8.09766 6.67383 8.30273 6.14648C8.57227 5.44922 8.90039 4.94531 9.42188 4.42383C9.94922 3.89648 10.4473 3.57422 11.1445 3.30469C11.6719 3.09961 12.4688 2.85352 13.9277 2.78906C15.5039 2.71875 15.9785 2.70117 19.9863 2.70117ZM19.9863 0C15.9141 0 15.4043 0.0175781 13.8047 0.0878906C12.2109 0.158203 11.1152 0.416016 10.166 0.785156C9.17578 1.17187 8.33789 1.68164 7.50586 2.51953C6.66797 3.35156 6.1582 4.18945 5.77148 5.17383C5.40234 6.12891 5.14453 7.21875 5.07422 8.8125C5.00391 10.418 4.98633 10.9277 4.98633 15C4.98633 19.0723 5.00391 19.582 5.07422 21.1816C5.14453 22.7754 5.40234 23.8711 5.77148 24.8203C6.1582 25.8105 6.66797 26.6484 7.50586 27.4805C8.33789 28.3125 9.17578 28.8281 10.1602 29.209C11.1152 29.5781 12.2051 29.8359 13.7988 29.9062C15.3984 29.9766 15.9082 29.9941 19.9805 29.9941C24.0527 29.9941 24.5625 29.9766 26.1621 29.9062C27.7559 29.8359 28.8516 29.5781 29.8008 29.209C30.7852 28.8281 31.623 28.3125 32.4551 27.4805C33.2871 26.6484 33.8027 25.8105 34.1836 24.8262C34.5527 23.8711 34.8105 22.7813 34.8809 21.1875C34.9512 19.5879 34.9688 19.0781 34.9688 15.0059C34.9688 10.9336 34.9512 10.4238 34.8809 8.82422C34.8105 7.23047 34.5527 6.13477 34.1836 5.18555C33.8145 4.18945 33.3047 3.35156 32.4668 2.51953C31.6348 1.6875 30.7969 1.17188 29.8125 0.791016C28.8574 0.421875 27.7676 0.164062 26.1738 0.09375C24.5684 0.0175781 24.0586 0 19.9863 0Z" fill="#8A1FAB"/>
<path d="M19.9863 7.29492C15.7324 7.29492 12.2812 10.7461 12.2812 15C12.2812 19.2539 15.7324 22.7051 19.9863 22.7051C24.2402 22.7051 27.6914 19.2539 27.6914 15C27.6914 10.7461 24.2402 7.29492 19.9863 7.29492ZM19.9863 19.998C17.2266 19.998 14.9883 17.7598 14.9883 15C14.9883 12.2402 17.2266 10.002 19.9863 10.002C22.7461 10.002 24.9844 12.2402 24.9844 15C24.9844 17.7598 22.7461 19.998 19.9863 19.998Z" fill="#8A1FAB"/>
<path d="M29.7949 6.99024C29.7949 7.98633 28.9863 8.78907 27.9961 8.78907C27 8.78907 26.1973 7.98047 26.1973 6.99024C26.1973 5.99414 27.0059 5.19141 27.9961 5.19141C28.9863 5.19141 29.7949 6 29.7949 6.99024Z" fill="#8A1FAB"/>
</g>
<defs>
<filter id="filter0_d_417_537" x="0.986328" y="0" width="38" height="38" filterUnits="userSpaceOnUse" color-interpolation-filters="sRGB">
<feFlood flood-opacity="0" result="BackgroundImageFix"/>
<feColorMatrix in="SourceAlpha" type="matrix" values="0 0 0 0 0 0 0 0 0 0 0 0 0 0 0 0 0 0 127 0" result="hardAlpha"/>
<feOffset dy="4"/>
<feGaussianBlur stdDeviation="2"/>
<feComposite in2="hardAlpha" operator="out"/>
<feColorMatrix type="matrix" values="0 0 0 0 0 0 0 0 0 0 0 0 0 0 0 0 0 0 0.25 0"/>
<feBlend mode="normal" in2="BackgroundImageFix" result="effect1_dropShadow_417_537"/>
<feBlend mode="normal" in="SourceGraphic" in2="effect1_dropShadow_417_537" result="shape"/>
</filter>
<clipPath id="clip0_417_537">
<rect width="30" height="30" fill="white" transform="translate(4.98633)"/>
</clipPath>
</defs>
</svg>
