<svg width="31" height="30" viewBox="0 0 31 30" fill="none" xmlns="http://www.w3.org/2000/svg">
<g clip-path="url(#clip0_417_539)">
<path fill-rule="evenodd" clip-rule="evenodd" d="M15.9987 0C7.69726 0 0.986328 6.76041 0.986328 15.124C0.986328 21.8094 5.28626 27.4685 11.2514 29.4714C11.9972 29.622 12.2704 29.146 12.2704 28.7456C12.2704 28.395 12.2458 27.1931 12.2458 25.9409C8.0697 26.8425 7.20007 24.138 7.20007 24.138C6.52894 22.3853 5.53455 21.9348 5.53455 21.9348C4.16772 21.0083 5.63411 21.0083 5.63411 21.0083C7.15029 21.1085 7.94586 22.5607 7.94586 22.5607C9.2878 24.8642 11.4502 24.2133 12.3202 23.8126C12.4443 22.836 12.8422 22.16 13.2648 21.7845C9.93404 21.4339 6.42969 20.1319 6.42969 14.3225C6.42969 12.6699 7.02583 11.3178 7.97045 10.2663C7.82141 9.89079 7.29932 8.33804 8.11979 6.25983C8.11979 6.25983 9.38737 5.85912 12.2455 7.81227C13.4691 7.48121 14.7311 7.3128 15.9987 7.31138C17.2663 7.31138 18.5585 7.48685 19.7517 7.81227C22.6101 5.85912 23.8777 6.25983 23.8777 6.25983C24.6982 8.33804 24.1758 9.89079 24.0267 10.2663C24.9962 11.3178 25.5678 12.6699 25.5678 14.3225C25.5678 20.1319 22.0634 21.4087 18.7078 21.7845C19.2548 22.2602 19.7268 23.1615 19.7268 24.5888C19.7268 26.617 19.7022 28.2447 19.7022 28.7453C19.7022 29.146 19.9757 29.622 20.7212 29.4717C26.6863 27.4682 30.9863 21.8094 30.9863 15.124C31.0108 6.76041 24.2753 0 15.9987 0Z" fill="#2C2B34"/>
</g>
<defs>
<clipPath id="clip0_417_539">
<rect width="30" height="30" fill="white" transform="translate(0.986328)"/>
</clipPath>
</defs>
</svg>
