<svg width="31" height="30" viewBox="0 0 31 30" fill="none" xmlns="http://www.w3.org/2000/svg">
<g clip-path="url(#clip0_417_538)">
<path d="M28.7656 0H3.20117C1.97656 0 0.986328 0.966797 0.986328 2.16211V27.832C0.986328 29.0273 1.97656 30 3.20117 30H28.7656C29.9902 30 30.9863 29.0273 30.9863 27.8379V2.16211C30.9863 0.966797 29.9902 0 28.7656 0ZM9.88672 25.5645H5.43359V11.2441H9.88672V25.5645ZM7.66016 9.29297C6.23047 9.29297 5.07617 8.13867 5.07617 6.71484C5.07617 5.29102 6.23047 4.13672 7.66016 4.13672C9.08398 4.13672 10.2383 5.29102 10.2383 6.71484C10.2383 8.13281 9.08398 9.29297 7.66016 9.29297ZM26.5508 25.5645H22.1035V18.6035C22.1035 16.9453 22.0742 14.8066 19.7891 14.8066C17.4746 14.8066 17.123 16.6172 17.123 18.4863V25.5645H12.6816V11.2441H16.9473V13.2012H17.0059C17.5977 12.0762 19.0508 10.8867 21.2129 10.8867C25.7188 10.8867 26.5508 13.8516 26.5508 17.707V25.5645Z" fill="#4C9FC1"/>
</g>
<defs>
<clipPath id="clip0_417_538">
<rect width="30" height="30" fill="white" transform="translate(0.986328)"/>
</clipPath>
</defs>
</svg>
