<svg width="90" height="90" viewBox="0 0 90 90" fill="none" xmlns="http://www.w3.org/2000/svg">
<rect x="1" y="1" width="88" height="88" rx="19" fill="#6E3AE1" stroke="white" stroke-width="2" stroke-linejoin="round"/>
<path d="M36.6665 47.0748L41.2619 52.3267C41.6833 52.8083 42.4432 52.7728 42.8179 52.254L52.1495 39.3333" stroke="#ECECEC" stroke-width="2" stroke-linecap="round" stroke-linejoin="round"/>
<path d="M45 76C61.5685 76 75 62.5685 75 46C75 29.4315 61.5685 16 45 16C28.4315 16 15 29.4315 15 46C15 50.799 16.1268 55.3349 18.1304 59.3574C19.6428 62.394 17.5442 66.4911 16.7445 69.4799C15.9689 72.3789 18.621 75.0311 21.52 74.2555C24.5089 73.4558 28.606 71.3572 31.6426 72.8696C35.6651 74.8731 40.201 76 45 76Z" stroke="#ECECEC" stroke-width="2" stroke-linecap="round" stroke-linejoin="round"/>
</svg>
