<svg width="439" height="327" viewBox="0 0 439 327" fill="none" xmlns="http://www.w3.org/2000/svg">
<rect x="0.289062" y="0.810059" width="437.802" height="325.928" rx="4" fill="#32A7E2"/>
<path d="M131.877 71.6892C128.936 74.0173 131.19 76.5574 134.219 74.3444L140.471 69.7756C143.354 67.6693 141.583 64.7638 138.623 66.7601L131.877 71.6892Z" fill="#FFF846"/>
<path d="M103.484 109.377C102.877 111.072 104.765 112.404 106.218 111.342L191.201 49.2464C192.775 48.0967 191.774 45.7109 189.861 46.0795C189.591 46.1315 189.337 46.2425 189.116 46.4046L104.15 108.487C103.845 108.71 103.611 109.021 103.484 109.377Z" fill="#FFF846"/>
<path d="M99.4138 132.268C99.4138 132.502 99.6797 132.637 99.8687 132.499L221.679 43.5148C221.875 43.3713 221.774 43.0601 221.53 43.0601C220.17 43.0601 218.826 43.0833 217.498 43.1121C216.681 43.1298 215.89 43.3988 215.231 43.8807L101.063 127.3C100.105 128 99.4995 129.089 99.454 130.275C99.4285 130.939 99.4138 131.603 99.4138 132.268Z" fill="#FFF846"/>
<path d="M100.723 145.342C100.976 146.611 102.463 147.161 103.507 146.398L239.401 47.1031C240.712 46.1453 240.177 44.0915 238.561 43.9301C238.124 43.8864 237.69 44.0076 237.336 44.2667L101.428 143.571C100.87 143.979 100.588 144.664 100.723 145.342Z" fill="#FFF846"/>
<path d="M105.06 159.14C105.504 160.177 106.793 160.514 107.704 159.849L257.924 50.0861C259.158 49.185 258.784 47.2769 257.291 46.952C256.789 46.8426 256.262 46.9551 255.847 47.2584L105.647 157.006C104.979 157.494 104.735 158.38 105.06 159.14Z" fill="#FFF846"/>
<path d="M111.653 171.233C112.206 172.073 113.349 172.262 114.161 171.668L274.236 54.7054C275.386 53.8647 275.137 52.0831 273.792 51.6135C273.242 51.4215 272.63 51.5131 272.159 51.8568L112.104 168.806C111.332 169.369 111.127 170.435 111.653 171.233Z" fill="#FFF846"/>
<path d="M120.078 181.929C120.691 182.594 121.712 182.689 122.443 182.155L288.722 60.6587C289.804 59.8682 289.674 58.2163 288.466 57.6375C287.876 57.3549 287.175 57.4231 286.647 57.8092L120.358 179.313C119.504 179.937 119.361 181.152 120.078 181.929Z" fill="#FFF846"/>
<path d="M130.13 191.43C130.749 191.944 131.642 191.971 132.291 191.497L301.593 67.7917C302.596 67.0594 302.563 65.5497 301.516 64.8829C300.906 64.4948 300.118 64.5236 299.535 64.9499L130.226 188.66C129.301 189.336 129.249 190.698 130.13 191.43Z" fill="#FFF846"/>
<path d="M141.7 199.778C142.311 200.163 143.105 200.134 143.689 199.707L312.975 76.0142C313.903 75.3356 313.96 73.9704 313.077 73.2339C312.452 72.713 311.551 72.6885 310.894 73.1686L141.626 196.849C140.614 197.588 140.639 199.11 141.7 199.778Z" fill="#FFF846"/>
<path d="M154.771 206.984C155.354 207.262 156.046 207.196 156.568 206.815L322.813 85.3428C323.667 84.7191 323.81 83.5041 323.093 82.727C322.48 82.0616 321.459 81.967 320.728 82.5011L154.508 203.974C153.432 204.76 153.568 206.409 154.771 206.984Z" fill="#FFF846"/>
<path d="M169.467 212.986C170.017 213.175 170.623 213.082 171.093 212.739L331.012 95.8902C331.783 95.3264 331.989 94.2612 331.463 93.4632C330.91 92.623 329.767 92.434 328.955 93.0275L169.007 209.898C167.854 210.74 168.117 212.522 169.467 212.986Z" fill="#FFF846"/>
<path d="M185.99 217.643C186.492 217.753 187.019 217.64 187.434 217.337L337.484 107.699C338.146 107.216 338.399 106.347 338.075 105.594C337.625 104.548 336.315 104.207 335.397 104.879L185.357 214.509C184.123 215.411 184.498 217.319 185.99 217.643Z" fill="#FFF846"/>
<path d="M204.767 220.645C205.205 220.688 205.646 220.567 206.002 220.307L341.657 121.187C342.218 120.777 342.5 120.084 342.366 119.403C342.113 118.127 340.619 117.58 339.568 118.348L203.927 217.457C202.609 218.42 203.142 220.485 204.767 220.645Z" fill="#FFF846"/>
<path d="M221.53 221.495C223.008 221.495 224.469 221.471 225.914 221.432C226.718 221.41 227.494 221.141 228.143 220.667L341.962 137.502C342.924 136.799 343.53 135.703 343.575 134.512C343.603 133.771 343.619 133.029 343.619 132.288C343.619 132.145 343.458 132.063 343.343 132.147L221.44 221.219C221.343 221.29 221.409 221.495 221.53 221.495Z" fill="#FFF846"/>
<path d="M253.626 218.356C253.888 218.303 254.133 218.194 254.349 218.037L338.789 156.338C339.084 156.123 339.312 155.824 339.438 155.481C340.06 153.8 338.163 152.45 336.715 153.508L252.282 215.202C250.718 216.344 251.727 218.734 253.626 218.356Z" fill="#FFF846"/>
<path d="M308.931 194.542C312.121 192.151 309.9 189.619 306.681 191.971C303.4 194.369 305.214 197.3 308.479 194.879C308.63 194.767 308.781 194.655 308.931 194.542Z" fill="#FFF846"/>
</svg>
